<?xml version="1.0" encoding="UTF-8"?> <svg xmlns="http://www.w3.org/2000/svg" width="16" height="28" viewBox="0 0 16 28" fill="none"><path d="M0.431507 2.79999C0.431507 3.03078 0.520275 3.23495 0.697811 3.41249L11.1636 13.8782L0.697811 24.344C0.520275 24.5215 0.431507 24.7257 0.431507 24.9565C0.431507 25.1873 0.520275 25.3915 0.697811 25.569L2.02933 26.9005C2.20687 27.0781 2.41104 27.1668 2.64183 27.1668C2.87263 27.1668 3.0768 27.0781 3.25433 26.9005L15.6641 14.4907C15.8417 14.3132 15.9304 14.109 15.9304 13.8782C15.9304 13.6475 15.8417 13.4433 15.6641 13.2657L3.25433 0.855965C3.0768 0.678429 2.87263 0.589661 2.64183 0.589661C2.41104 0.589661 2.20687 0.678429 2.02933 0.855965L0.697811 2.18749C0.520275 2.36502 0.431507 2.56919 0.431507 2.79999Z" fill="#41515F"></path></svg> 