<?xml version="1.0" encoding="UTF-8"?> <svg xmlns="http://www.w3.org/2000/svg" xmlns:xlink="http://www.w3.org/1999/xlink" width="49px" height="49px" viewBox="0 0 49 49"><!-- Generator: sketchtool 59 (101010) - https://sketch.com --><title>D18F47EE-E8D0-45AD-A3C5-AA86293A7B02</title><desc>Created with sketchtool.</desc><g id="(Inspect)-Megamenu" stroke="none" stroke-width="1" fill="none" fill-rule="evenodd"><g id="Tour-Mega-Menu-0.7" transform="translate(-260.000000, -509.000000)"><g id="List-1" transform="translate(190.000000, 146.000000)"><g id="4" transform="translate(0.000000, 336.000000)"><g id="svg-megamenu-migrate" transform="translate(70.000000, 27.000000)"><g id="Group-5"><path d="M3,1 L31,1 C32.1045695,1 33,1.8954305 33,3 L33,9 L33,9 L1,9 L1,3 C1,1.8954305 1.8954305,1 3,1 Z" id="Rectangle" fill="#FFFFFF"></path><path d="M1.84741111e-13,8.57142806 L34.2857116,8.57142806 L34.2857116,26.4285693 C34.2857116,28.4010147 32.6867287,29.9999976 30.7142833,29.9999976 L3.57142836,29.9999976 C1.59898294,29.9999976 1.84982666e-13,28.4010147 1.84741111e-13,26.4285693 L1.84741111e-13,8.57142806 L1.84741111e-13,8.57142806 Z" id="Rectangle-Copy-5" fill="#D9F4F4"></path><path d="M33.6428545,3.57142836 C33.6428545,1.95402312 32.3316885,0.642857105 30.7142833,0.642857105 L3.57142836,0.642857105 C1.95402312,0.642857105 0.642857105,1.95402312 0.642857105,3.57142836 L0.642857105,26.4285716 C0.642857105,28.0459769 1.95402312,29.3571429 3.57142836,29.3571429 L30.7142833,29.3571429 C32.3316885,29.3571429 33.6428545,28.0459769 33.6428545,26.4285716 L33.6428545,3.57142836 Z" id="Rectangle" stroke="#02182B" stroke-width="1.28571421"></path><rect id="Rectangle" stroke="#02182B" stroke-width="1.28571421" fill="#FFFFFF" x="16.7857132" y="15.2142843" width="11.7142858" height="8.71428579" rx="1.78571418"></rect><line x1="7.14717075" y1="16.1468039" x2="12.1385427" y2="15.853195" id="Path-15" stroke="#02182B" stroke-width="1.28571421" stroke-linecap="round" transform="translate(9.642857, 15.999999) rotate(3.366461) translate(-9.642857, -15.999999) "></line><line x1="7.00431407" y1="19.6468051" x2="11.9956859" y2="19.3531949" id="Path-15-Copy-4" stroke="#02182B" stroke-width="1.28571421" stroke-linecap="round" transform="translate(9.500000, 19.500000) rotate(3.366461) translate(-9.500000, -19.500000) "></line><line x1="7.00431407" y1="23.1468051" x2="11.9956859" y2="22.8531949" id="Path-15-Copy-5" stroke="#02182B" stroke-width="1.28571421" stroke-linecap="round" transform="translate(9.500000, 23.000000) rotate(3.366461) translate(-9.500000, -23.000000) "></line><circle id="Oval" stroke="#02182B" stroke-width="1.28571421" fill="#D9F4F4" cx="5.71428537" cy="4.9999997" r="1.49999991"></circle><circle id="Oval-Copy-7" stroke="#02182B" stroke-width="1.28571421" fill="#D9F4F4" cx="11.4285707" cy="4.9999997" r="1.49999991"></circle><rect id="Rectangle" fill="#02182B" x="3.94351218e-13" y="8.57142806" width="34.285712" height="1.28571421"></rect><rect id="Rectangle" fill="#02182B" opacity="0.100000001" x="0.714285672" y="1.42857134" width="2.85714269" height="27.142855"></rect></g><g id="Group-5-Copy" transform="translate(14.000000, 19.000000)"><path d="M3,1 L31,1 C32.1045695,1 33,1.8954305 33,3 L33,9 L33,9 L1,9 L1,3 C1,1.8954305 1.8954305,1 3,1 Z" id="Rectangle" fill="#FFFFFF"></path><path d="M1.84741111e-13,8.57142806 L34.2857116,8.57142806 L34.2857116,26.4285693 C34.2857116,28.4010147 32.6867287,29.9999976 30.7142833,29.9999976 L3.57142836,29.9999976 C1.59898294,29.9999976 1.84982666e-13,28.4010147 1.84741111e-13,26.4285693 L1.84741111e-13,8.57142806 L1.84741111e-13,8.57142806 Z" id="Rectangle-Copy-5" fill="#D9F4F4"></path><path d="M33.6428545,3.57142836 C33.6428545,1.95402312 32.3316885,0.642857105 30.7142833,0.642857105 L3.57142836,0.642857105 C1.95402312,0.642857105 0.642857105,1.95402312 0.642857105,3.57142836 L0.642857105,26.4285716 C0.642857105,28.0459769 1.95402312,29.3571429 3.57142836,29.3571429 L30.7142833,29.3571429 C32.3316885,29.3571429 33.6428545,28.0459769 33.6428545,26.4285716 L33.6428545,3.57142836 Z" id="Rectangle" stroke="#02182B" stroke-width="1.28571421"></path><rect id="Rectangle" stroke="#02182B" stroke-width="1.28571421" fill="#FFFFFF" x="16.7857132" y="15.2142843" width="11.7142858" height="8.71428579" rx="1.78571418"></rect><line x1="7.14717075" y1="16.1468039" x2="12.1385427" y2="15.853195" id="Path-15" stroke="#02182B" stroke-width="1.28571421" stroke-linecap="round" transform="translate(9.642857, 15.999999) rotate(3.366461) translate(-9.642857, -15.999999) "></line><line x1="7.00431407" y1="19.6468051" x2="11.9956859" y2="19.3531949" id="Path-15-Copy-4" stroke="#02182B" stroke-width="1.28571421" stroke-linecap="round" transform="translate(9.500000, 19.500000) rotate(3.366461) translate(-9.500000, -19.500000) "></line><line x1="7.00431407" y1="23.1468051" x2="11.9956859" y2="22.8531949" id="Path-15-Copy-5" stroke="#02182B" stroke-width="1.28571421" stroke-linecap="round" transform="translate(9.500000, 23.000000) rotate(3.366461) translate(-9.500000, -23.000000) "></line><circle id="Oval" stroke="#02182B" stroke-width="1.28571421" fill="#D9F4F4" cx="5.71428537" cy="4.9999997" r="1.49999991"></circle><circle id="Oval-Copy-7" stroke="#02182B" stroke-width="1.28571421" fill="#D9F4F4" cx="11.4285707" cy="4.9999997" r="1.49999991"></circle><rect id="Rectangle" fill="#02182B" x="3.94351218e-13" y="8.57142806" width="34.285712" height="1.28571421"></rect><rect id="Rectangle" fill="#02182B" opacity="0.100000001" x="0.714285672" y="1.42857134" width="2.85714269" height="27.142855"></rect></g></g></g></g></g></g></svg> 