<?xml version="1.0" encoding="UTF-8"?> <svg xmlns="http://www.w3.org/2000/svg" xmlns:xlink="http://www.w3.org/1999/xlink" width="45px" height="41px" viewBox="0 0 45 41"><!-- Generator: sketchtool 59 (101010) - https://sketch.com --><title>B45266FC-A13A-49C2-8F46-78054025F967</title><desc>Created with sketchtool.</desc><g id="(Inspect)-Megamenu" stroke="none" stroke-width="1" fill="none" fill-rule="evenodd"><g id="Tour-Mega-Menu-0.7" transform="translate(-260.000000, -397.000000)"><g id="List-1" transform="translate(190.000000, 146.000000)"><g id="3" transform="translate(0.000000, 224.000000)"><g id="svg-megamenu-bulkedit" transform="translate(70.000000, 27.000000)"><path d="M3.57142836,0.714285672 L40.7142833,0.714285672 C42.2922396,0.714285672 43.571426,1.99347202 43.571426,3.57142836 L43.571426,9.28571373 L43.571426,9.28571373 L0.714285672,9.28571373 L0.714285672,3.57142836 C0.714285672,1.99347202 1.99347202,0.714285672 3.57142836,0.714285672 Z" id="Rectangle" fill="#FFFFFF"></path><path d="M0,8.57142806 L44.2857116,8.57142806 L44.2857116,36.4285693 C44.2857116,38.4010147 42.6867287,39.9999976 40.7142833,39.9999976 L3.57142836,39.9999976 C1.59898294,39.9999976 2.41554897e-16,38.4010147 0,36.4285693 L0,8.57142806 L0,8.57142806 Z" id="Rectangle-Copy-5" fill="#D9F4F4"></path><rect id="Rectangle" fill="#FFFFFF" x="1" y="16" width="42" height="6"></rect><polygon id="Rectangle" fill="#FFFFFF" points="1 28 43 28 43 34 1 34"></polygon><path d="M43.6428545,3.57142836 C43.6428545,1.95402312 42.3316885,0.642857105 40.7142833,0.642857105 L3.57142836,0.642857105 C1.95402312,0.642857105 0.642857105,1.95402312 0.642857105,3.57142836 L0.642857105,37.4285716 C0.642857105,39.0459769 1.95402312,40.3571429 3.57142836,40.3571429 L40.7142833,40.3571429 C42.3316885,40.3571429 43.6428545,39.0459769 43.6428545,37.4285716 L43.6428545,3.57142836 Z" id="Rectangle" stroke="#02182B" stroke-width="1.28571421"></path><line x1="1.03623816" y1="29.2331625" x2="42.9637618" y2="26.7668375" id="Path-15" stroke="#02182B" stroke-width="1.1" stroke-linecap="round" transform="translate(22.000000, 28.000000) rotate(3.366461) translate(-22.000000, -28.000000) "></line><line x1="1.03623816" y1="35.2331625" x2="42.9637618" y2="32.7668375" id="Path-15-Copy" stroke="#02182B" stroke-width="1.1" stroke-linecap="round" transform="translate(22.000000, 34.000000) rotate(3.366461) translate(-22.000000, -34.000000) "></line><line x1="1.03623816" y1="17.2331625" x2="42.9637618" y2="14.7668375" id="Path-15-Copy-2" stroke="#02182B" stroke-width="1.1" stroke-linecap="round" transform="translate(22.000000, 16.000000) rotate(3.366461) translate(-22.000000, -16.000000) "></line><line x1="1.03623816" y1="23.2331625" x2="42.9637618" y2="20.7668375" id="Path-15-Copy-6" stroke="#02182B" stroke-width="1.1" stroke-linecap="round" transform="translate(22.000000, 22.000000) rotate(3.366461) translate(-22.000000, -22.000000) "></line><circle id="Oval" stroke="#02182B" stroke-width="1.28571421" fill="#D9F4F4" cx="5.71428537" cy="4.9999997" r="1.49999991"></circle><circle id="Oval-Copy-7" stroke="#02182B" stroke-width="1.28571421" fill="#D9F4F4" cx="11.4285707" cy="4.9999997" r="1.49999991"></circle><circle id="Oval-Copy-8" stroke="#02182B" stroke-width="1.28571421" fill="#D9F4F4" cx="17.1428561" cy="4.9999997" r="1.49999991"></circle><rect id="Rectangle" fill="#02182B" x="0" y="8.57142806" width="44.2857116" height="1.28571421"></rect><rect id="Rectangle" fill="#02182B" opacity="0.100000001" x="0.714285672" y="1.42857134" width="2.85714269" height="38.142855"></rect><line x1="14.5" y1="9" x2="14.5" y2="40.5" id="Path-4" stroke="#02182B" stroke-width="1.1"></line><line x1="29.5" y1="9" x2="29.5" y2="40.5" id="Path-4-Copy" stroke="#02182B" stroke-width="1.1"></line></g></g></g></g></g></svg> 