<?xml version="1.0" encoding="UTF-8"?> <svg xmlns="http://www.w3.org/2000/svg" width="199" height="37" viewBox="0 0 199 37" fill="none"><path d="M13.5 19C14.3284 19 15 18.3284 15 17.5C15 16.6716 14.3284 16 13.5 16C12.6716 16 12 16.6716 12 17.5C12 18.3284 12.6716 19 13.5 19Z" fill="white"></path><path d="M22.5 19C23.3284 19 24 18.3284 24 17.5C24 16.6716 23.3284 16 22.5 16C21.6716 16 21 16.6716 21 17.5C21 18.3284 21.6716 19 22.5 19Z" fill="white"></path><path fill-rule="evenodd" clip-rule="evenodd" d="M35.4208 19.9853C35.2244 19.8542 34.9735 19.8105 34.7554 19.887L30.6865 21.22C30.2829 21.3512 30.0647 21.7882 30.1956 22.1816C30.3265 22.5859 30.7629 22.8044 31.1556 22.6733L32.7482 22.1488C31.5701 23.8862 28.6575 27.5467 25.3523 26.9895C24.7523 26.8911 24.3051 26.5196 24.1851 26.0388C24.0105 25.3723 24.4578 24.5746 25.3959 23.8206C29.0393 20.9359 31.0356 17.1115 31.0356 13.0576C31.0247 5.85682 25.1777 0 17.9782 0C10.7786 0 4.94256 5.85682 4.94256 13.0686C4.94256 17.1225 6.94972 20.9469 10.5822 23.8316C11.5204 24.5746 11.9567 25.3832 11.7931 26.0497C11.6731 26.5305 11.2149 26.902 10.6259 27.0004C7.33151 27.5576 4.40805 23.8971 3.22993 22.1598L4.81166 22.6842C5.21527 22.8154 5.6407 22.5968 5.7716 22.1925C5.90251 21.7882 5.68434 21.3621 5.28072 21.231L1.21187 19.887C0.982792 19.8105 0.742806 19.8433 0.546454 19.9853C0.350101 20.1164 0.230108 20.335 0.2192 20.5754L0.0010308 25.0008C-0.0207861 25.4269 0.306468 25.7766 0.720989 25.7984C0.731897 25.7984 0.742806 25.7984 0.764623 25.7984C1.16824 25.7984 1.5064 25.4815 1.52821 25.0663L1.61548 23.2634C2.91359 25.1647 6.01159 29 9.93863 29C10.2659 29 10.6041 28.9781 10.9531 28.9126C12.3276 28.6831 13.3748 27.7653 13.7021 26.5087C14.0729 25.0554 13.3857 23.5147 11.8149 22.269C9.98227 20.8157 6.91699 17.6907 6.91699 13.0467C6.91699 6.92766 11.8912 1.94499 18 1.94499C24.1087 1.94499 29.083 6.92766 29.083 13.0467C29.083 17.6907 26.0177 20.8157 24.1851 22.269C22.6143 23.5147 21.9161 25.0663 22.2979 26.5087C22.6143 27.7543 23.6724 28.6722 25.0468 28.9126C29.4539 29.6556 32.9773 25.3286 34.3845 23.2634L34.4718 25.0554C34.4936 25.4597 34.8317 25.7875 35.2353 25.7875C35.2463 25.7875 35.2572 25.7875 35.279 25.7875C35.7044 25.7656 36.0208 25.405 35.9989 24.9898L35.7808 20.5644C35.7371 20.3459 35.6062 20.1164 35.4208 19.9853Z" fill="white"></path><path fill-rule="evenodd" clip-rule="evenodd" d="M25.6543 31.8947C25.5292 31.5053 25.1119 31.2947 24.7364 31.4316C24.3504 31.5579 24.1418 31.9789 24.2774 32.3579L24.872 34.1789C20.5012 31.6421 19.604 28.5158 19.312 25.7579C19.2702 25.3263 18.9051 25 18.4774 25C18.0497 25 17.6951 25.3263 17.6429 25.7579C17.3508 28.5053 16.4537 31.6316 12.1038 34.1579L12.6984 32.3474C12.8236 31.9579 12.6149 31.5474 12.2394 31.4211C11.8534 31.2947 11.4466 31.5053 11.3214 31.8842L10.0383 35.8105C9.96532 36.0316 9.99661 36.2632 10.1322 36.4526C10.2678 36.6421 10.466 36.7579 10.6955 36.7684L14.9203 37C14.9307 37 14.9516 37 14.962 37C15.348 37 15.6714 36.6947 15.6922 36.3053C15.7131 35.8947 15.4001 35.5474 15.0037 35.5263L13.2617 35.4316C15.8487 33.8632 17.549 31.9579 18.4983 29.5053C19.4476 31.9579 21.1479 33.8632 23.7349 35.4316L22.0033 35.5263C21.5965 35.5474 21.294 35.8947 21.3148 36.3053C21.3357 36.6947 21.6591 37 22.045 37C22.0555 37 22.0763 37 22.0868 37L26.3115 36.7684C26.541 36.7579 26.7496 36.6421 26.8748 36.4526C27 36.2632 27.0313 36.0211 26.9687 35.8105L25.6543 31.8947Z" fill="white"></path><path d="M104.52 32.6448C104.79 32.6448 104.96 32.4348 104.96 32.1648C104.96 31.8948 104.79 31.6848 104.52 31.6848L101.58 31.6848L101.58 29.5548L104.11 29.5548C104.38 29.5548 104.55 29.3448 104.55 29.0748C104.55 28.8048 104.38 28.5948 104.11 28.5948L101.58 28.5948L101.58 26.6048L104.47 26.6048C104.74 26.6048 104.91 26.3948 104.91 26.1248C104.91 25.8548 104.74 25.6448 104.47 25.6448L101.04 25.6448C100.74 25.6448 100.5 25.8348 100.5 26.1348L100.5 32.1548C100.5 32.4548 100.74 32.6448 101.04 32.6448L104.52 32.6448Z" fill="white"></path><path d="M108.54 32.7648C110.06 32.7648 110.95 31.8348 110.95 30.7348C110.95 29.6148 110.35 28.9048 108.99 28.6648L108.3 28.5448C107.49 28.4048 107.16 28.0548 107.16 27.4848C107.16 26.9048 107.63 26.5048 108.35 26.5048C108.89 26.5048 109.36 26.7448 109.63 27.2148C109.72 27.3648 109.87 27.4648 110.07 27.4648C110.38 27.4648 110.63 27.2448 110.63 26.9548C110.63 26.8648 110.6 26.7548 110.57 26.6948C110.24 26.0348 109.37 25.5248 108.36 25.5248C106.98 25.5248 106.06 26.3848 106.06 27.4748C106.06 28.5648 106.67 29.2348 108.01 29.4648L108.7 29.5848C109.55 29.7348 109.85 30.0748 109.85 30.7348C109.85 31.3548 109.33 31.7948 108.54 31.7948C107.91 31.7948 107.41 31.4748 107.15 30.9748C107.07 30.8148 106.92 30.7148 106.71 30.7148C106.39 30.7148 106.12 30.9448 106.12 31.2448C106.12 31.3348 106.16 31.4448 106.19 31.5048C106.55 32.2548 107.42 32.7648 108.54 32.7648Z" fill="white"></path><path d="M113.639 32.2148C113.639 32.5148 113.879 32.7048 114.179 32.7048C114.479 32.7048 114.719 32.5148 114.719 32.2148L114.719 26.6048L116.399 26.6048C116.669 26.6048 116.839 26.3948 116.839 26.1248C116.839 25.8548 116.669 25.6448 116.399 25.6448L111.959 25.6448C111.689 25.6448 111.519 25.8548 111.519 26.1248C111.519 26.3948 111.689 26.6048 111.959 26.6048L113.639 26.6048L113.639 32.2148Z" fill="white"></path><path d="M118.069 32.7248C118.439 32.7248 118.719 32.4348 118.719 32.0648C118.719 31.6948 118.439 31.4048 118.069 31.4048C117.699 31.4048 117.419 31.6948 117.419 32.0648C117.419 32.4348 117.699 32.7248 118.069 32.7248Z" fill="white"></path><path d="M122.744 31.7848C122.654 31.8848 122.594 32.0048 122.594 32.1648C122.594 32.4348 122.764 32.6448 123.034 32.6448L126.754 32.6448C127.024 32.6448 127.194 32.4348 127.194 32.1648C127.194 31.8948 127.024 31.6848 126.754 31.6848L124.204 31.6848L126.264 29.3848C126.814 28.7748 127.064 28.2248 127.064 27.6148C127.064 26.4248 126.174 25.5248 124.794 25.5248C123.834 25.5248 123.044 26.0048 122.724 26.6848C122.694 26.7548 122.654 26.8648 122.654 26.9648C122.654 27.2548 122.904 27.4748 123.214 27.4748C123.424 27.4748 123.604 27.3748 123.704 27.1848C123.934 26.7548 124.284 26.5048 124.814 26.5048C125.474 26.5048 125.964 26.9448 125.964 27.6248C125.964 28.0348 125.824 28.3648 125.444 28.7848L122.744 31.7848Z" fill="white"></path><path d="M130.846 31.7848C129.856 31.7848 129.386 30.8748 129.386 29.1448C129.386 27.4148 129.856 26.5048 130.846 26.5048C131.836 26.5048 132.306 27.4148 132.306 29.1448C132.306 30.8748 131.836 31.7848 130.846 31.7848ZM130.846 25.5248C129.206 25.5248 128.286 26.8248 128.286 29.1448C128.286 31.4648 129.206 32.7648 130.846 32.7648C132.486 32.7648 133.406 31.4648 133.406 29.1448C133.406 26.8248 132.486 25.5248 130.846 25.5248Z" fill="white"></path><path d="M136.325 26.7448L136.325 32.2148C136.325 32.5148 136.565 32.7048 136.865 32.7048C137.165 32.7048 137.405 32.5148 137.405 32.2148L137.405 26.0748C137.405 25.7748 137.165 25.5848 136.875 25.5848C136.705 25.5848 136.565 25.6148 136.405 25.6848L134.765 26.4048C134.585 26.4848 134.505 26.6148 134.505 26.8048C134.505 27.0748 134.735 27.2948 134.955 27.2948C135.015 27.2948 135.085 27.2848 135.175 27.2448L136.325 26.7448Z" fill="white"></path><path d="M140.924 26.7448L140.924 32.2148C140.924 32.5148 141.164 32.7048 141.464 32.7048C141.764 32.7048 142.004 32.5148 142.004 32.2148L142.004 26.0748C142.004 25.7748 141.764 25.5848 141.474 25.5848C141.304 25.5848 141.164 25.6148 141.004 25.6848L139.364 26.4048C139.184 26.4848 139.104 26.6148 139.104 26.8048C139.104 27.0748 139.334 27.2948 139.554 27.2948C139.614 27.2948 139.684 27.2848 139.774 27.2448L140.924 26.7448Z" fill="white"></path><path fill-rule="evenodd" clip-rule="evenodd" d="M109.01 28.5466C109.706 28.6694 110.224 28.9152 110.568 29.2885C110.913 29.6634 111.07 30.1527 111.07 30.7348C111.07 31.3184 110.833 31.8586 110.395 32.2516C109.957 32.6444 109.324 32.8848 108.54 32.8848C107.386 32.8848 106.467 32.3583 106.082 31.5576C106.048 31.4901 106 31.3612 106 31.2448C106 30.865 106.338 30.5948 106.71 30.5948C106.964 30.5948 107.156 30.7192 107.256 30.9202C107.496 31.3796 107.954 31.6748 108.54 31.6748C108.913 31.6748 109.212 31.5708 109.415 31.4045C109.616 31.2396 109.73 31.0085 109.73 30.7348C109.73 30.4228 109.659 30.2081 109.507 30.0522C109.352 29.8927 109.094 29.7763 108.679 29.703C108.679 29.703 108.679 29.703 108.679 29.703L107.989 29.5831C107.989 29.5831 107.989 29.5831 107.989 29.5831C107.305 29.4656 106.79 29.2329 106.446 28.8755C106.099 28.5158 105.94 28.0433 105.94 27.4748C105.94 26.3037 106.929 25.4048 108.36 25.4048C109.404 25.4048 110.322 25.9318 110.677 26.6411C110.715 26.7168 110.75 26.8451 110.75 26.9548C110.75 27.3225 110.434 27.5848 110.07 27.5848C109.824 27.5848 109.636 27.4594 109.527 27.2765L109.526 27.2746C109.279 26.8461 108.852 26.6248 108.35 26.6248C108.011 26.6248 107.743 26.7188 107.561 26.8696C107.382 27.0189 107.28 27.2298 107.28 27.4848C107.28 27.7446 107.354 27.9406 107.509 28.0894C107.668 28.2423 107.926 28.3585 108.32 28.4266L109.01 28.5466ZM108.01 29.4648L108.7 29.5848C109.55 29.7348 109.85 30.0748 109.85 30.7348C109.85 31.3548 109.33 31.7948 108.54 31.7948C107.91 31.7948 107.41 31.4748 107.15 30.9748C107.07 30.8148 106.92 30.7148 106.71 30.7148C106.39 30.7148 106.12 30.9448 106.12 31.2448C106.12 31.3348 106.16 31.4448 106.19 31.5048C106.55 32.2548 107.42 32.7648 108.54 32.7648C110.06 32.7648 110.95 31.8348 110.95 30.7348C110.95 29.6148 110.35 28.9048 108.99 28.6648L108.3 28.5448C107.49 28.4048 107.16 28.0548 107.16 27.4848C107.16 26.9048 107.63 26.5048 108.35 26.5048C108.89 26.5048 109.36 26.7448 109.63 27.2148C109.72 27.3648 109.87 27.4648 110.07 27.4648C110.38 27.4648 110.63 27.2448 110.63 26.9548C110.63 26.8648 110.6 26.7548 110.57 26.6948C110.24 26.0348 109.37 25.5248 108.36 25.5248C106.98 25.5248 106.06 26.3848 106.06 27.4748C106.06 28.5648 106.67 29.2348 108.01 29.4648ZM122.724 26.6848C123.044 26.0048 123.834 25.5248 124.794 25.5248C126.174 25.5248 127.064 26.4248 127.064 27.6148C127.064 28.2248 126.814 28.7748 126.264 29.3848L124.204 31.6848L126.754 31.6848C127.024 31.6848 127.194 31.8948 127.194 32.1648C127.194 32.4348 127.024 32.6448 126.754 32.6448L123.034 32.6448C122.764 32.6448 122.594 32.4348 122.594 32.1648C122.594 32.0048 122.654 31.8848 122.744 31.7848L125.444 28.7848C125.824 28.3648 125.964 28.0348 125.964 27.6248C125.964 26.9448 125.474 26.5048 124.814 26.5048C124.284 26.5048 123.934 26.7548 123.704 27.1848C123.604 27.3748 123.424 27.4748 123.214 27.4748C122.904 27.4748 122.654 27.2548 122.654 26.9648C122.654 26.8648 122.694 26.7548 122.724 26.6848ZM124.472 31.5648L126.353 29.4652ZM136.405 25.6848C136.565 25.6148 136.705 25.5848 136.875 25.5848C137.165 25.5848 137.405 25.7748 137.405 26.0748L137.405 32.2148C137.405 32.5148 137.165 32.7048 136.865 32.7048C136.565 32.7048 136.325 32.5148 136.325 32.2148L136.325 26.7448L135.175 27.2448C135.085 27.2848 135.015 27.2948 134.955 27.2948C134.735 27.2948 134.505 27.0748 134.505 26.8048C134.505 26.6148 134.585 26.4848 134.765 26.4048L136.405 25.6848ZM135.223 27.3547C135.223 27.3547 135.223 27.3546 135.223 27.3547C135.117 27.4017 135.031 27.4148 134.955 27.4148C134.806 27.4148 134.663 27.3414 134.561 27.2341C134.457 27.1257 134.385 26.9743 134.385 26.8048C134.385 26.6928 134.408 26.5888 134.466 26.4988C134.524 26.4085 134.61 26.3424 134.716 26.2951L136.357 25.5749C136.531 25.4985 136.688 25.4648 136.875 25.4648C137.217 25.4648 137.525 25.6949 137.525 26.0748L137.525 32.2148C137.525 32.596 137.215 32.8248 136.865 32.8248C136.514 32.8248 136.205 32.596 136.205 32.2148L136.205 26.9278L135.223 27.3547ZM141.004 25.6848C141.164 25.6148 141.304 25.5848 141.474 25.5848C141.764 25.5848 142.004 25.7748 142.004 26.0748L142.004 32.2148C142.004 32.5148 141.764 32.7048 141.464 32.7048C141.164 32.7048 140.924 32.5148 140.924 32.2148L140.924 26.7448L139.774 27.2448C139.684 27.2848 139.614 27.2948 139.554 27.2948C139.334 27.2948 139.104 27.0748 139.104 26.8048C139.104 26.6148 139.184 26.4848 139.364 26.4048L141.004 25.6848ZM139.823 27.3547C139.822 27.3547 139.823 27.3546 139.823 27.3547C139.717 27.4017 139.63 27.4148 139.554 27.4148C139.405 27.4148 139.263 27.3414 139.16 27.2341C139.056 27.1257 138.984 26.9743 138.984 26.8048C138.984 26.6928 139.008 26.5888 139.066 26.4988C139.124 26.4085 139.209 26.3424 139.316 26.2951L140.956 25.5749C141.131 25.4985 141.287 25.4648 141.474 25.4648C141.816 25.4648 142.124 25.6949 142.124 26.0748L142.124 32.2148C142.124 32.596 141.815 32.8248 141.464 32.8248C141.114 32.8248 140.804 32.596 140.804 32.2148L140.804 26.9278L139.823 27.3547ZM104.931 32.5855C104.831 32.6983 104.688 32.7648 104.52 32.7648L101.04 32.7648C100.69 32.7648 100.38 32.536 100.38 32.1548L100.38 26.1348C100.38 25.7536 100.69 25.5248 101.04 25.5248L104.47 25.5248C104.638 25.5248 104.781 25.5913 104.881 25.7041C104.98 25.8154 105.03 25.9651 105.03 26.1248C105.03 26.2845 104.98 26.4342 104.881 26.5455C104.781 26.6583 104.638 26.7248 104.47 26.7248L101.7 26.7248L101.7 28.4748L104.11 28.4748C104.278 28.4748 104.421 28.5413 104.521 28.6541C104.62 28.7654 104.67 28.9151 104.67 29.0748C104.67 29.2345 104.62 29.3842 104.521 29.4955C104.421 29.6083 104.278 29.6748 104.11 29.6748L101.7 29.6748L101.7 31.5648L104.52 31.5648C104.688 31.5648 104.831 31.6313 104.931 31.7441C105.03 31.8554 105.08 32.0051 105.08 32.1648C105.08 32.3245 105.03 32.4742 104.931 32.5855ZM114.179 32.8248C113.828 32.8248 113.519 32.596 113.519 32.2148L113.519 26.7248L111.959 26.7248C111.79 26.7248 111.647 26.6583 111.547 26.5455C111.449 26.4342 111.399 26.2845 111.399 26.1248C111.399 25.9651 111.449 25.8154 111.547 25.7041C111.647 25.5913 111.79 25.5248 111.959 25.5248L116.399 25.5248C116.567 25.5248 116.71 25.5913 116.81 25.7041C116.908 25.8154 116.959 25.9651 116.959 26.1248C116.959 26.2845 116.908 26.4342 116.81 26.5455C116.71 26.6583 116.567 26.7248 116.399 26.7248L114.839 26.7248L114.839 32.2148C114.839 32.596 114.529 32.8248 114.179 32.8248ZM118.839 32.0648C118.839 32.4987 118.508 32.8448 118.069 32.8448C117.631 32.8448 117.299 32.4987 117.299 32.0648C117.299 31.6309 117.631 31.2848 118.069 31.2848C118.508 31.2848 118.839 31.6309 118.839 32.0648ZM130.263 31.5133C130.425 31.6125 130.617 31.6648 130.846 31.6648C131.074 31.6648 131.267 31.6125 131.429 31.5133C131.591 31.4138 131.729 31.2631 131.842 31.0562C132.069 30.6388 132.186 30.0029 132.186 29.1448C132.186 28.2867 132.069 27.6508 131.842 27.2334C131.729 27.0265 131.591 26.8758 131.429 26.7763C131.267 26.6771 131.074 26.6248 130.846 26.6248C130.617 26.6248 130.425 26.6771 130.263 26.7763C130.101 26.8758 129.963 27.0265 129.85 27.2334C129.623 27.6508 129.506 28.2867 129.506 29.1448C129.506 30.0029 129.623 30.6388 129.85 31.0562C129.963 31.2631 130.101 31.4138 130.263 31.5133ZM128.853 26.3955C129.312 25.7466 129.99 25.4048 130.846 25.4048C131.702 25.4048 132.38 25.7466 132.839 26.3955C133.294 27.0386 133.526 27.9716 133.526 29.1448C133.526 30.318 133.294 31.251 132.839 31.8941C132.38 32.543 131.702 32.8848 130.846 32.8848C129.99 32.8848 129.312 32.543 128.853 31.8941C128.398 31.251 128.166 30.318 128.166 29.1448C128.166 27.9716 128.398 27.0386 128.853 26.3955ZM104.96 32.1648C104.96 32.4348 104.79 32.6448 104.52 32.6448L101.04 32.6448C100.74 32.6448 100.5 32.4548 100.5 32.1548L100.5 26.1348C100.5 25.8348 100.74 25.6448 101.04 25.6448L104.47 25.6448C104.74 25.6448 104.91 25.8548 104.91 26.1248C104.91 26.3948 104.74 26.6048 104.47 26.6048L101.58 26.6048L101.58 28.5948L104.11 28.5948C104.38 28.5948 104.55 28.8048 104.55 29.0748C104.55 29.3448 104.38 29.5548 104.11 29.5548L101.58 29.5548L101.58 31.6848L104.52 31.6848C104.79 31.6848 104.96 31.8948 104.96 32.1648ZM113.639 32.2148C113.639 32.5148 113.879 32.7048 114.179 32.7048C114.479 32.7048 114.719 32.5148 114.719 32.2148L114.719 26.6048L116.399 26.6048C116.669 26.6048 116.839 26.3948 116.839 26.1248C116.839 25.8548 116.669 25.6448 116.399 25.6448L111.959 25.6448C111.689 25.6448 111.519 25.8548 111.519 26.1248C111.519 26.3948 111.689 26.6048 111.959 26.6048L113.639 26.6048L113.639 32.2148ZM118.719 32.0648C118.719 32.4348 118.439 32.7248 118.069 32.7248C117.699 32.7248 117.419 32.4348 117.419 32.0648C117.419 31.6948 117.699 31.4048 118.069 31.4048C118.439 31.4048 118.719 31.6948 118.719 32.0648ZM129.386 29.1448C129.386 30.8748 129.856 31.7848 130.846 31.7848C131.836 31.7848 132.306 30.8748 132.306 29.1448C132.306 27.4148 131.836 26.5048 130.846 26.5048C129.856 26.5048 129.386 27.4148 129.386 29.1448ZM128.286 29.1448C128.286 26.8248 129.206 25.5248 130.846 25.5248C132.486 25.5248 133.406 26.8248 133.406 29.1448C133.406 31.4648 132.486 32.7648 130.846 32.7648C129.206 32.7648 128.286 31.4648 128.286 29.1448Z" fill="white"></path><path d="M50 29.5248H93.75" stroke="white" stroke-width="1.35" stroke-linecap="round"></path><path d="M148.5 29.5248H192.25" stroke="white" stroke-width="1.35" stroke-linecap="round"></path><path d="M54.0984 7.876L56.9748 17.6272C57.1584 18.28 57.6276 18.6472 58.3008 18.6472C58.9944 18.6472 59.4432 18.28 59.6268 17.6272C60.7692 13.588 61.9728 9.5488 63.1356 5.5096C63.1764 5.3668 63.1968 5.224 63.1968 5.1016C63.1968 4.5508 62.7072 4.1224 62.0748 4.1224C61.5444 4.1224 61.1772 4.3876 61.0344 4.918L58.2396 14.6896L55.4244 5.1628C55.2408 4.51 54.792 4.1428 54.0984 4.1428C53.4048 4.1428 52.956 4.51 52.7724 5.1628L49.9572 14.6896L47.1624 4.918C47.0196 4.3876 46.6524 4.1224 46.122 4.1224C45.4896 4.1224 45 4.5508 45 5.1016C45 5.224 45.0204 5.3668 45.0612 5.5096C46.224 9.5488 47.4276 13.588 48.57 17.6272C48.7536 18.28 49.2024 18.6472 49.896 18.6472C50.5692 18.6472 51.0384 18.28 51.222 17.6272L54.0984 7.876Z" fill="white"></path><path d="M67.9473 13.3432H70.7217C73.6185 13.3432 75.6177 11.6296 75.6177 8.794C75.6177 5.9584 73.6185 4.2448 70.7217 4.2448H66.8457C66.2337 4.2448 65.7441 4.6324 65.7441 5.2444V17.6476C65.7441 18.2596 66.2337 18.6472 66.8457 18.6472C67.4577 18.6472 67.9473 18.2596 67.9473 17.6476V13.3432ZM67.9473 6.2032H70.5585C72.2517 6.2032 73.3737 7.2028 73.3737 8.794C73.3737 10.3852 72.2517 11.3848 70.5585 11.3848H67.9473V6.2032Z" fill="white"></path><path d="M91.8201 17.8516C92.0037 18.3616 92.3301 18.6472 92.8605 18.6472C93.4725 18.6472 94.0029 18.2392 94.0029 17.668C94.0029 17.5456 93.9825 17.4028 93.9213 17.26L89.4129 5.1424C89.1885 4.51 88.7805 4.1224 88.0869 4.1224C87.3933 4.1224 86.9853 4.51 86.7609 5.1424L82.2525 17.26C82.1913 17.4028 82.1709 17.5456 82.1709 17.668C82.1709 18.2392 82.7013 18.6472 83.3133 18.6472C83.8437 18.6472 84.1701 18.3616 84.3537 17.8516L85.3329 15.0976H90.8205L91.8201 17.8516ZM88.0869 7.4884L90.1269 13.18H86.0265L88.0869 7.4884Z" fill="white"></path><path d="M98.6071 5.122C98.6071 4.51 98.1175 4.1224 97.5055 4.1224C96.8935 4.1224 96.4039 4.51 96.4039 5.122V17.5252C96.4039 18.1372 96.8935 18.5248 97.5055 18.5248H104.605C105.155 18.5248 105.502 18.0964 105.502 17.5456C105.502 16.9948 105.155 16.5664 104.605 16.5664H98.6071V5.122Z" fill="white"></path><path d="M109.584 5.122C109.584 4.51 109.094 4.1224 108.482 4.1224C107.87 4.1224 107.381 4.51 107.381 5.122V17.5252C107.381 18.1372 107.87 18.5248 108.482 18.5248H115.582C116.132 18.5248 116.479 18.0964 116.479 17.5456C116.479 16.9948 116.132 16.5664 115.582 16.5664H109.584V5.122Z" fill="white"></path><path d="M125.883 5.122C125.883 4.51 125.394 4.1224 124.782 4.1224C124.17 4.1224 123.68 4.51 123.68 5.122V17.6476C123.68 18.2596 124.17 18.6472 124.782 18.6472C125.394 18.6472 125.883 18.2596 125.883 17.6476V5.122Z" fill="white"></path><path d="M136.977 16.444C137.569 16.444 137.895 16.1584 138.14 15.6892L141.914 8.5084L142.424 17.5048C142.465 18.0964 142.832 18.5248 143.525 18.5248C144.117 18.5248 144.627 18.1984 144.627 17.5864C144.627 17.1376 144.586 16.546 143.852 5.224C143.811 4.5916 143.423 4.1224 142.709 4.1224C142.016 4.1224 141.669 4.5508 141.302 5.2648L136.977 13.5268L132.652 5.2648C132.285 4.5508 131.938 4.1224 131.245 4.1224C130.531 4.1224 130.143 4.5916 130.102 5.224C129.368 16.546 129.327 17.1376 129.327 17.5864C129.327 18.1984 129.837 18.5248 130.429 18.5248C131.122 18.5248 131.489 18.0964 131.53 17.5048L132.04 8.5084L135.814 15.6892C136.059 16.1584 136.385 16.444 136.977 16.444Z" fill="white"></path><path d="M150.185 13.3432H152.959C155.856 13.3432 157.855 11.6296 157.855 8.794C157.855 5.9584 155.856 4.2448 152.959 4.2448H149.083C148.471 4.2448 147.982 4.6324 147.982 5.2444V17.6476C147.982 18.2596 148.471 18.6472 149.083 18.6472C149.695 18.6472 150.185 18.2596 150.185 17.6476V13.3432ZM150.185 6.2032H152.796C154.489 6.2032 155.611 7.2028 155.611 8.794C155.611 10.3852 154.489 11.3848 152.796 11.3848H150.185V6.2032Z" fill="white"></path><path d="M172.264 11.3848C172.264 7.2028 170.183 4 166.042 4C161.901 4 159.82 7.2028 159.82 11.3848C159.82 15.5668 161.901 18.7696 166.042 18.7696C170.183 18.7696 172.264 15.5668 172.264 11.3848ZM162.064 11.3848C162.064 8.3452 163.349 5.9992 166.042 5.9992C168.735 5.9992 170.02 8.3452 170.02 11.3848C170.02 14.4244 168.735 16.7704 166.042 16.7704C163.349 16.7704 162.064 14.4244 162.064 11.3848Z" fill="white"></path><path d="M181.905 12.6904C183.761 12.1396 184.945 10.7728 184.945 8.6104C184.945 5.7952 182.884 4.2448 180.008 4.2448H176.356C175.744 4.2448 175.255 4.6324 175.255 5.2444V17.6476C175.255 18.2596 175.744 18.6472 176.356 18.6472C176.968 18.6472 177.458 18.2596 177.458 17.6476V12.976H179.641L182.721 18.0352C183.007 18.5044 183.251 18.6472 183.639 18.6472C184.231 18.6472 184.781 18.178 184.781 17.6272C184.781 17.4436 184.679 17.1988 184.577 17.0356L181.905 12.6904ZM182.68 8.6104C182.68 10.222 181.517 11.0176 179.804 11.0176H177.458V6.2032H179.804C181.517 6.2032 182.68 6.9988 182.68 8.6104Z" fill="white"></path><path d="M190.443 17.6476C190.443 18.2596 190.932 18.6472 191.544 18.6472C192.156 18.6472 192.646 18.2596 192.646 17.6476V6.2032H196.073C196.624 6.2032 196.971 5.7748 196.971 5.224C196.971 4.6732 196.624 4.2448 196.073 4.2448H187.016C186.465 4.2448 186.118 4.6732 186.118 5.224C186.118 5.7748 186.465 6.2032 187.016 6.2032H190.443V17.6476Z" fill="white"></path></svg> 